<svg width="40" height="16" viewBox="0 0 40 16" fill="none" xmlns="http://www.w3.org/2000/svg">
<rect width="40" height="16" rx="8" fill="#D291D0"/>
<path d="M11.6914 12.1055C11.2539 12.1055 10.8633 12.0059 10.5195 11.8066C10.1797 11.6074 9.91016 11.3281 9.71094 10.9688H9.6875V12H8.71484V3.54492H9.73438V6.92578H9.75781C9.94922 6.57422 10.2148 6.29883 10.5547 6.09961C10.8984 5.90039 11.2832 5.80078 11.709 5.80078C12.4785 5.80078 13.0996 6.08789 13.5723 6.66211C14.0449 7.23633 14.2812 8 14.2812 8.95312C14.2812 9.91016 14.0449 10.6758 13.5723 11.25C13.0996 11.8203 12.4727 12.1055 11.6914 12.1055ZM11.4922 6.69727C10.9727 6.69727 10.5488 6.90625 10.2207 7.32422C9.89258 7.73828 9.72852 8.28125 9.72852 8.95312C9.72852 9.62891 9.89258 10.1738 10.2207 10.5879C10.5488 11.002 10.9727 11.209 11.4922 11.209C12.0312 11.209 12.457 11.0078 12.7695 10.6055C13.082 10.1992 13.2383 9.64844 13.2383 8.95312C13.2383 8.26172 13.082 7.71289 12.7695 7.30664C12.457 6.90039 12.0312 6.69727 11.4922 6.69727ZM18.2417 6.68555C17.7691 6.68555 17.3765 6.84961 17.064 7.17773C16.7554 7.50195 16.5855 7.91992 16.5542 8.43164H19.8648C19.853 7.91602 19.6988 7.49609 19.4019 7.17188C19.105 6.84766 18.7183 6.68555 18.2417 6.68555ZM19.8413 10.2539H20.8433C20.7534 10.793 20.4722 11.2363 19.9995 11.584C19.5308 11.9316 18.9663 12.1055 18.3062 12.1055C17.4351 12.1055 16.7495 11.8242 16.2495 11.2617C15.7495 10.6992 15.4995 9.9375 15.4995 8.97656C15.4995 8.02344 15.7495 7.25586 16.2495 6.67383C16.7534 6.0918 17.4234 5.80078 18.2593 5.80078C19.0796 5.80078 19.728 6.07617 20.2046 6.62695C20.6812 7.17773 20.9195 7.91602 20.9195 8.8418V9.22852H16.5484V9.28711C16.5484 9.87305 16.7085 10.3418 17.0288 10.6934C17.3491 11.0449 17.7827 11.2207 18.3296 11.2207C18.7124 11.2207 19.0386 11.1328 19.3081 10.957C19.5777 10.7812 19.7554 10.5469 19.8413 10.2539ZM22.7588 4.43555H23.7784V5.90625H24.962V6.74414H23.7784V10.3652C23.7784 10.6426 23.8389 10.8477 23.96 10.9805C24.0811 11.1094 24.2725 11.1738 24.5342 11.1738C24.6983 11.1738 24.8389 11.1641 24.9561 11.1445V12C24.8233 12.0312 24.6084 12.0469 24.3116 12.0469C23.753 12.0469 23.3545 11.9219 23.1163 11.6719C22.878 11.4219 22.7588 11.0039 22.7588 10.418V6.74414H21.8506V5.90625H22.7588V4.43555ZM28.4244 11.2383C28.9048 11.2383 29.3072 11.0898 29.6314 10.793C29.9595 10.4922 30.1236 10.123 30.1236 9.68555V9.1875L28.4947 9.28711C28.0845 9.31445 27.7662 9.41406 27.5396 9.58594C27.317 9.75781 27.2056 9.98828 27.2056 10.2773C27.2056 10.5664 27.317 10.7988 27.5396 10.9746C27.7623 11.1504 28.0572 11.2383 28.4244 11.2383ZM28.1959 12.1055C27.5904 12.1055 27.1002 11.9375 26.7252 11.6016C26.3541 11.2656 26.1685 10.8242 26.1685 10.2773C26.1685 9.75391 26.3599 9.33594 26.7427 9.02344C27.1295 8.71094 27.6744 8.53516 28.3775 8.49609L30.1236 8.39648V7.88672C30.1236 7.51562 30.0064 7.22461 29.772 7.01367C29.5377 6.80273 29.2095 6.69727 28.7877 6.69727C28.4009 6.69727 28.0865 6.7832 27.8443 6.95508C27.6021 7.12305 27.4478 7.35938 27.3814 7.66406H26.397C26.4322 7.12109 26.6666 6.67578 27.1002 6.32812C27.5377 5.97656 28.108 5.80078 28.8111 5.80078C29.5259 5.80078 30.0923 5.98047 30.5103 6.33984C30.9322 6.69922 31.1431 7.18164 31.1431 7.78711V12H30.1763V10.9512H30.1529C29.9693 11.2988 29.6998 11.5781 29.3443 11.7891C28.9888 12 28.606 12.1055 28.1959 12.1055Z" fill="white"/>
</svg>
