<svg width="49" height="16" viewBox="0 0 49 16" fill="none" xmlns="http://www.w3.org/2000/svg">
<rect width="49" height="16" rx="8" fill="#56A7E2"/>
<path d="M8.55664 7.58789C8.55664 7.06445 8.76758 6.63672 9.18945 6.30469C9.61523 5.96875 10.1621 5.80078 10.8301 5.80078C11.459 5.80078 11.9824 5.96875 12.4004 6.30469C12.8184 6.64062 13.0391 7.06641 13.0625 7.58203H12.0898C12.0547 7.28516 11.9219 7.05273 11.6914 6.88477C11.4648 6.7168 11.166 6.63281 10.7949 6.63281C10.4238 6.63281 10.125 6.7168 9.89844 6.88477C9.67188 7.04883 9.55859 7.26562 9.55859 7.53516C9.55859 7.94922 9.89648 8.24219 10.5723 8.41406L11.5156 8.64258C12.1289 8.79883 12.5605 9.00195 12.8105 9.25195C13.0645 9.49805 13.1914 9.8457 13.1914 10.2949C13.1914 10.8262 12.9648 11.2617 12.5117 11.6016C12.0586 11.9375 11.4766 12.1055 10.7656 12.1055C10.1016 12.1055 9.55273 11.9414 9.11914 11.6133C8.68945 11.2812 8.44727 10.8438 8.39258 10.3008H9.41211C9.52539 10.9492 9.99805 11.2734 10.8301 11.2734C11.2402 11.2734 11.5645 11.1934 11.8027 11.0332C12.0449 10.8691 12.166 10.6484 12.166 10.3711C12.166 10.1523 12.0938 9.97852 11.9492 9.84961C11.8086 9.7207 11.5684 9.61133 11.2285 9.52148L10.1562 9.24609C9.08984 8.97266 8.55664 8.41992 8.55664 7.58789ZM15.0601 4.43555H16.0796V5.90625H17.2632V6.74414H16.0796V10.3652C16.0796 10.6426 16.1402 10.8477 16.2613 10.9805C16.3823 11.1094 16.5738 11.1738 16.8355 11.1738C16.9995 11.1738 17.1402 11.1641 17.2573 11.1445V12C17.1245 12.0312 16.9097 12.0469 16.6128 12.0469C16.0542 12.0469 15.6558 11.9219 15.4175 11.6719C15.1792 11.4219 15.0601 11.0039 15.0601 10.418V6.74414H14.1519V5.90625H15.0601V4.43555ZM20.7256 11.2383C21.2061 11.2383 21.6084 11.0898 21.9327 10.793C22.2608 10.4922 22.4248 10.123 22.4248 9.68555V9.1875L20.7959 9.28711C20.3858 9.31445 20.0674 9.41406 19.8409 9.58594C19.6182 9.75781 19.5069 9.98828 19.5069 10.2773C19.5069 10.5664 19.6182 10.7988 19.8409 10.9746C20.0635 11.1504 20.3584 11.2383 20.7256 11.2383ZM20.4971 12.1055C19.8916 12.1055 19.4014 11.9375 19.0264 11.6016C18.6553 11.2656 18.4698 10.8242 18.4698 10.2773C18.4698 9.75391 18.6612 9.33594 19.044 9.02344C19.4307 8.71094 19.9756 8.53516 20.6788 8.49609L22.4248 8.39648V7.88672C22.4248 7.51562 22.3077 7.22461 22.0733 7.01367C21.8389 6.80273 21.5108 6.69727 21.0889 6.69727C20.7022 6.69727 20.3877 6.7832 20.1455 6.95508C19.9034 7.12305 19.7491 7.35938 19.6827 7.66406H18.6983C18.7334 7.12109 18.9678 6.67578 19.4014 6.32812C19.8389 5.97656 20.4092 5.80078 21.1123 5.80078C21.8272 5.80078 22.3936 5.98047 22.8116 6.33984C23.2334 6.69922 23.4444 7.18164 23.4444 7.78711V12H22.4776V10.9512H22.4541C22.2705 11.2988 22.001 11.5781 21.6455 11.7891C21.2901 12 20.9073 12.1055 20.4971 12.1055ZM28.2486 12.1055C27.8111 12.1055 27.4205 12.0059 27.0767 11.8066C26.7369 11.6074 26.4673 11.3281 26.2681 10.9688H26.2447V12H25.272V3.54492H26.2916V6.92578H26.315C26.5064 6.57422 26.772 6.29883 27.1119 6.09961C27.4556 5.90039 27.8404 5.80078 28.2662 5.80078C29.0357 5.80078 29.6568 6.08789 30.1295 6.66211C30.6021 7.23633 30.8384 8 30.8384 8.95312C30.8384 9.91016 30.6021 10.6758 30.1295 11.25C29.6568 11.8203 29.0298 12.1055 28.2486 12.1055ZM28.0494 6.69727C27.5298 6.69727 27.106 6.90625 26.7779 7.32422C26.4498 7.73828 26.2857 8.28125 26.2857 8.95312C26.2857 9.62891 26.4498 10.1738 26.7779 10.5879C27.106 11.002 27.5298 11.209 28.0494 11.209C28.5884 11.209 29.0142 11.0078 29.3267 10.6055C29.6392 10.1992 29.7955 9.64844 29.7955 8.95312C29.7955 8.26172 29.6392 7.71289 29.3267 7.30664C29.0142 6.90039 28.5884 6.69727 28.0494 6.69727ZM32.4083 12V3.54492H33.4278V12H32.4083ZM37.7281 6.68555C37.2555 6.68555 36.8629 6.84961 36.5504 7.17773C36.2418 7.50195 36.0719 7.91992 36.0406 8.43164H39.3512C39.3395 7.91602 39.1852 7.49609 38.8883 7.17188C38.5914 6.84766 38.2047 6.68555 37.7281 6.68555ZM39.3277 10.2539H40.3297C40.2398 10.793 39.9586 11.2363 39.4859 11.584C39.0172 11.9316 38.4527 12.1055 37.7926 12.1055C36.9215 12.1055 36.2359 11.8242 35.7359 11.2617C35.2359 10.6992 34.9859 9.9375 34.9859 8.97656C34.9859 8.02344 35.2359 7.25586 35.7359 6.67383C36.2398 6.0918 36.9098 5.80078 37.7457 5.80078C38.566 5.80078 39.2145 6.07617 39.691 6.62695C40.1676 7.17773 40.4059 7.91602 40.4059 8.8418V9.22852H36.0348V9.28711C36.0348 9.87305 36.1949 10.3418 36.5152 10.6934C36.8355 11.0449 37.2691 11.2207 37.816 11.2207C38.1988 11.2207 38.525 11.1328 38.7945 10.957C39.0641 10.7812 39.2418 10.5469 39.3277 10.2539Z" fill="white"/>
</svg>
