<svg width="36" height="16" viewBox="0 0 36 16" fill="none" xmlns="http://www.w3.org/2000/svg">
<rect width="36" height="16" rx="8" fill="#E4BB51"/>
<path d="M10.6719 11.2383C11.1523 11.2383 11.5547 11.0898 11.8789 10.793C12.207 10.4922 12.3711 10.123 12.3711 9.68555V9.1875L10.7422 9.28711C10.332 9.31445 10.0137 9.41406 9.78711 9.58594C9.56445 9.75781 9.45312 9.98828 9.45312 10.2773C9.45312 10.5664 9.56445 10.7988 9.78711 10.9746C10.0098 11.1504 10.3047 11.2383 10.6719 11.2383ZM10.4434 12.1055C9.83789 12.1055 9.34766 11.9375 8.97266 11.6016C8.60156 11.2656 8.41602 10.8242 8.41602 10.2773C8.41602 9.75391 8.60742 9.33594 8.99023 9.02344C9.37695 8.71094 9.92188 8.53516 10.625 8.49609L12.3711 8.39648V7.88672C12.3711 7.51562 12.2539 7.22461 12.0195 7.01367C11.7852 6.80273 11.457 6.69727 11.0352 6.69727C10.6484 6.69727 10.334 6.7832 10.0918 6.95508C9.84961 7.12305 9.69531 7.35938 9.62891 7.66406H8.64453C8.67969 7.12109 8.91406 6.67578 9.34766 6.32812C9.78516 5.97656 10.3555 5.80078 11.0586 5.80078C11.7734 5.80078 12.3398 5.98047 12.7578 6.33984C13.1797 6.69922 13.3906 7.18164 13.3906 7.78711V12H12.4238V10.9512H12.4004C12.2168 11.2988 11.9473 11.5781 11.5918 11.7891C11.2363 12 10.8535 12.1055 10.4434 12.1055ZM15.2183 12V3.54492H16.2378V12H15.2183ZM18.4229 12V6.74414H17.5733V5.90625H18.4229V5.22656C18.4229 4.64062 18.5596 4.20703 18.833 3.92578C19.1104 3.64062 19.5303 3.49805 20.0928 3.49805C20.3116 3.49805 20.5186 3.51367 20.7139 3.54492V4.37109C20.5498 4.34766 20.3955 4.33594 20.251 4.33594C19.708 4.33594 19.4366 4.63477 19.4366 5.23242V5.90625H20.6846V6.74414H19.4424V12H18.4229ZM23.8775 11.2383C24.358 11.2383 24.7603 11.0898 25.0845 10.793C25.4127 10.4922 25.5767 10.123 25.5767 9.68555V9.1875L23.9478 9.28711C23.5377 9.31445 23.2193 9.41406 22.9927 9.58594C22.7701 9.75781 22.6587 9.98828 22.6587 10.2773C22.6587 10.5664 22.7701 10.7988 22.9927 10.9746C23.2154 11.1504 23.5103 11.2383 23.8775 11.2383ZM23.649 12.1055C23.0435 12.1055 22.5533 11.9375 22.1783 11.6016C21.8072 11.2656 21.6216 10.8242 21.6216 10.2773C21.6216 9.75391 21.813 9.33594 22.1959 9.02344C22.5826 8.71094 23.1275 8.53516 23.8306 8.49609L25.5767 8.39648V7.88672C25.5767 7.51562 25.4595 7.22461 25.2252 7.01367C24.9908 6.80273 24.6627 6.69727 24.2408 6.69727C23.8541 6.69727 23.5396 6.7832 23.2974 6.95508C23.0552 7.12305 22.9009 7.35938 22.8345 7.66406H21.8502C21.8853 7.12109 22.1197 6.67578 22.5533 6.32812C22.9908 5.97656 23.5611 5.80078 24.2642 5.80078C24.9791 5.80078 25.5455 5.98047 25.9634 6.33984C26.3853 6.69922 26.5962 7.18164 26.5962 7.78711V12H25.6295V10.9512H25.606C25.4224 11.2988 25.1529 11.5781 24.7974 11.7891C24.442 12 24.0591 12.1055 23.649 12.1055Z" fill="white"/>
</svg>
