<svg width="60" height="16" viewBox="0 0 60 16" fill="none" xmlns="http://www.w3.org/2000/svg">
<rect width="60" height="16" rx="8" fill="#CDD0CA"/>
<path d="M11.6211 5.80078C12.4023 5.80078 13.0312 6.08789 13.5078 6.66211C13.9883 7.23633 14.2285 8 14.2285 8.95312C14.2285 9.90234 13.9902 10.666 13.5137 11.2441C13.0371 11.8184 12.4141 12.1055 11.6445 12.1055C11.2148 12.1055 10.8301 12.0078 10.4902 11.8125C10.1504 11.6172 9.88867 11.3496 9.70508 11.0098H9.68164V14.0332H8.66211V5.90625H9.62891V6.9375H9.65234C9.84375 6.58594 10.1113 6.30859 10.4551 6.10547C10.7988 5.90234 11.1875 5.80078 11.6211 5.80078ZM11.4219 11.209C11.9648 11.209 12.3945 11.0059 12.7109 10.5996C13.0273 10.1934 13.1855 9.64453 13.1855 8.95312C13.1855 8.26172 13.0273 7.71289 12.7109 7.30664C12.3945 6.90039 11.9648 6.69727 11.4219 6.69727C10.8984 6.69727 10.4766 6.9043 10.1562 7.31836C9.83594 7.73242 9.67578 8.27734 9.67578 8.95312C9.67578 9.63281 9.83594 10.1797 10.1562 10.5938C10.4766 11.0039 10.8984 11.209 11.4219 11.209ZM15.7925 12V3.54492H16.812V12H15.7925ZM20.6788 11.2383C21.1592 11.2383 21.5616 11.0898 21.8858 10.793C22.2139 10.4922 22.378 10.123 22.378 9.68555V9.1875L20.7491 9.28711C20.3389 9.31445 20.0205 9.41406 19.794 9.58594C19.5713 9.75781 19.46 9.98828 19.46 10.2773C19.46 10.5664 19.5713 10.7988 19.794 10.9746C20.0166 11.1504 20.3116 11.2383 20.6788 11.2383ZM20.4502 12.1055C19.8448 12.1055 19.3545 11.9375 18.9795 11.6016C18.6084 11.2656 18.4229 10.8242 18.4229 10.2773C18.4229 9.75391 18.6143 9.33594 18.9971 9.02344C19.3838 8.71094 19.9288 8.53516 20.6319 8.49609L22.378 8.39648V7.88672C22.378 7.51562 22.2608 7.22461 22.0264 7.01367C21.792 6.80273 21.4639 6.69727 21.042 6.69727C20.6553 6.69727 20.3409 6.7832 20.0987 6.95508C19.8565 7.12305 19.7022 7.35938 19.6358 7.66406H18.6514C18.6866 7.12109 18.9209 6.67578 19.3545 6.32812C19.792 5.97656 20.3623 5.80078 21.0655 5.80078C21.7803 5.80078 22.3467 5.98047 22.7647 6.33984C23.1866 6.69922 23.3975 7.18164 23.3975 7.78711V12H22.4307V10.9512H22.4073C22.2237 11.2988 21.9541 11.5781 21.5987 11.7891C21.2432 12 20.8604 12.1055 20.4502 12.1055ZM25.1724 12V5.90625H26.1334V6.87891H26.1568C26.3326 6.53906 26.5845 6.27539 26.9127 6.08789C27.2408 5.89648 27.6334 5.80078 28.0904 5.80078C28.7545 5.80078 29.272 6.00195 29.6431 6.4043C30.0142 6.80273 30.1998 7.34961 30.1998 8.04492V12H29.1802V8.22656C29.1802 7.73047 29.063 7.35352 28.8287 7.0957C28.5943 6.83398 28.2447 6.70312 27.7798 6.70312C27.2994 6.70312 26.9146 6.85938 26.6255 7.17188C26.3365 7.48438 26.192 7.89844 26.192 8.41406V12H25.1724ZM31.9805 12V5.90625H32.9415V6.87891H32.9649C33.1407 6.53906 33.3927 6.27539 33.7208 6.08789C34.0489 5.89648 34.4415 5.80078 34.8985 5.80078C35.5626 5.80078 36.0802 6.00195 36.4513 6.4043C36.8223 6.80273 37.0079 7.34961 37.0079 8.04492V12H35.9884V8.22656C35.9884 7.73047 35.8712 7.35352 35.6368 7.0957C35.4024 6.83398 35.0528 6.70312 34.588 6.70312C34.1075 6.70312 33.7227 6.85938 33.4337 7.17188C33.1446 7.48438 33.0001 7.89844 33.0001 8.41406V12H31.9805ZM41.232 6.68555C40.7594 6.68555 40.3668 6.84961 40.0543 7.17773C39.7457 7.50195 39.5758 7.91992 39.5445 8.43164H42.8551C42.8434 7.91602 42.6891 7.49609 42.3922 7.17188C42.0953 6.84766 41.7086 6.68555 41.232 6.68555ZM42.8316 10.2539H43.8336C43.7437 10.793 43.4625 11.2363 42.9898 11.584C42.5211 11.9316 41.9566 12.1055 41.2965 12.1055C40.4254 12.1055 39.7398 11.8242 39.2398 11.2617C38.7398 10.6992 38.4898 9.9375 38.4898 8.97656C38.4898 8.02344 38.7398 7.25586 39.2398 6.67383C39.7437 6.0918 40.4137 5.80078 41.2496 5.80078C42.0699 5.80078 42.7184 6.07617 43.1949 6.62695C43.6715 7.17773 43.9098 7.91602 43.9098 8.8418V9.22852H39.5387V9.28711C39.5387 9.87305 39.6988 10.3418 40.0191 10.6934C40.3395 11.0449 40.773 11.2207 41.3199 11.2207C41.7027 11.2207 42.0289 11.1328 42.2984 10.957C42.568 10.7812 42.7457 10.5469 42.8316 10.2539ZM47.7296 12.1055C46.9484 12.1055 46.3175 11.8184 45.837 11.2441C45.3605 10.6699 45.1222 9.90625 45.1222 8.95312C45.1222 8.00391 45.3605 7.24219 45.837 6.66797C46.3136 6.08984 46.9366 5.80078 47.7062 5.80078C48.1359 5.80078 48.5206 5.89844 48.8605 6.09375C49.2003 6.28906 49.462 6.55664 49.6456 6.89648H49.6691V3.54492H50.6886V12H49.7159V10.9688H49.6984C49.4991 11.3242 49.2296 11.6035 48.8898 11.8066C48.5499 12.0059 48.1632 12.1055 47.7296 12.1055ZM47.923 6.69727C47.3839 6.69727 46.9562 6.90234 46.6398 7.3125C46.3234 7.71875 46.1652 8.26562 46.1652 8.95312C46.1652 9.64453 46.3234 10.1934 46.6398 10.5996C46.9562 11.0059 47.3839 11.209 47.923 11.209C48.4503 11.209 48.8741 11.0039 49.1945 10.5938C49.5148 10.1797 49.6749 9.63281 49.6749 8.95312C49.6749 8.27344 49.5128 7.72852 49.1886 7.31836C48.8683 6.9043 48.4464 6.69727 47.923 6.69727Z" fill="white"/>
</svg>
